<svg width="50" height="137" viewBox="0 0 50 137" fill="none" xmlns="http://www.w3.org/2000/svg">
<g clip-path="url(#clip0_429_23032)">
<path d="M-35.9333 105.814L-146 42.2329C-147.8 41.2332 -150 42.4995 -150 44.5656L-150 90.2189C-150 92.8182 -148.6 95.1508 -146.4 96.4838L-53.6 150.068C-51.4 151.334 -48.6 151.334 -46.4 150.068L-22.1622 136.089C-22.1443 136.079 -22.1333 136.06 -22.1333 136.039V136.039C-22.1333 136.018 -22.1223 135.999 -22.1045 135.989L7.83781 118.694C7.85064 118.687 7.86668 118.696 7.86668 118.711V118.711C7.86668 118.725 7.8827 118.735 7.89553 118.727L30.0667 105.948C48.2667 95.4174 49.4 69.2917 31.8667 57.6951C31.4667 57.4285 31.1334 57.2285 30.7334 56.9619L-88.4539 -11.9335C-88.5509 -11.9895 -88.6418 -12.0569 -88.735 -12.119V-12.119C-88.8262 -12.1798 -88.9161 -12.2466 -89.0103 -12.3027C-102.865 -20.5544 -102.618 -40.7041 -88.6 -48.8072V-48.8072C-83.6952 -51.6396 -77.2511 -48.147 -74.5457 -43.171C-72.1572 -38.7779 -68.5755 -35.0439 -64.0667 -32.4786L46 31.0362C47.8 32.0359 50 30.7696 50 28.7035L50 -16.8832C50 -19.4824 48.6 -21.8151 46.4 -23.148L-46.4 -76.7324C-48.6 -77.9987 -51.4 -77.9987 -53.6 -76.7324L-64.3333 -70.5342L-119 -39.0101L-130.667 -32.212C-148.867 -21.6818 -149.733 4.64387 -131.8 15.774C-131.467 15.9739 -131.067 16.2405 -130.733 16.4404L-11.4802 85.2689C-11.3827 85.3252 -11.2912 85.3928 -11.1975 85.4553V85.4553C-11.1068 85.5157 -11.0176 85.5823 -10.924 85.6382C2.86515 93.8898 2.61874 114.04 -11.3333 122.076V122.076C-16.2812 124.946 -22.7809 121.449 -25.5295 116.433C-27.9214 112.067 -31.4771 108.37 -35.9333 105.814Z" fill="#014739"/>
</g>
<defs>
<clipPath id="clip0_429_23032">
<rect width="200" height="200" fill="white" transform="matrix(4.37114e-08 1 1 -4.37114e-08 -150 -63)"/>
</clipPath>
</defs>
</svg>
