<svg width="101" height="146" viewBox="0 0 101 146" fill="none" xmlns="http://www.w3.org/2000/svg">
<g clip-path="url(#clip0_429_23112)">
<path d="M114.465 168.813L4.39844 105.231C2.59844 104.232 0.398443 105.498 0.398443 107.564L0.398445 153.217C0.398445 155.817 1.79845 158.149 3.99845 159.482L96.7984 213.067C98.9985 214.333 101.798 214.333 103.998 213.067L128.236 199.087C128.254 199.077 128.265 199.058 128.265 199.037C128.265 199.017 128.276 198.998 128.294 198.987L158.236 181.693C158.249 181.685 158.265 181.694 158.265 181.709C158.265 181.724 158.281 181.733 158.294 181.726L180.465 168.946C198.665 158.416 199.798 132.29 182.265 120.694C181.865 120.427 181.532 120.227 181.132 119.96L61.9445 51.065C61.8476 51.009 61.7567 50.9416 61.6635 50.8795C61.5723 50.8187 61.4823 50.7519 61.3882 50.6958C47.5333 42.4442 47.78 22.2944 61.7984 14.1913C66.7033 11.3589 73.1474 14.8515 75.8528 19.8275C78.2412 24.2206 81.8229 27.9546 86.3318 30.5199L196.398 94.0347C198.198 95.0344 200.398 93.7681 200.398 91.7021L200.398 46.1153C200.398 43.5161 198.998 41.1835 196.798 39.8505L103.998 -13.7339C101.798 -15.0002 98.9984 -15.0002 96.7984 -13.7339L86.0651 -7.53568L31.3984 23.9885L19.7318 30.7865C1.53177 41.3167 0.665108 67.6424 18.5984 78.7725C18.9318 78.9724 19.3318 79.239 19.6651 79.439L138.918 148.267C139.016 148.324 139.107 148.391 139.201 148.454C139.292 148.514 139.381 148.581 139.474 148.637C153.264 156.888 153.017 177.038 139.065 185.075C134.117 187.945 127.618 184.448 124.869 179.431C122.477 175.066 118.921 171.369 114.465 168.813Z" fill="#014739"/>
</g>
<defs>
<clipPath id="clip0_429_23112">
<rect width="200" height="200" fill="white" transform="matrix(4.37114e-08 1 1 -4.37114e-08 0.398438 0)"/>
</clipPath>
</defs>
</svg>
