<svg
    width="20"
    height="20"
    viewBox="0 0 20 20"
    fill="none"
    xmlns="http://www.w3.org/2000/svg"
>
    <path
      d="M10.8347 16.6154C14.1232 16.2053 16.668 13.4 16.668 10.0003C16.668 6.31843 13.6832 3.33366 10.0013 3.33366C6.3194 3.33366 3.33464 6.31843 3.33464 10.0003C3.33464 13.4 5.87938 16.2053 9.16799 16.6154V11.667H7.5013V10.0003H9.16799V8.62183C9.16799 7.50745 9.28399 7.10334 9.5019 6.69593C9.71974 6.28853 10.0395 5.96879 10.4469 5.75091C10.7658 5.58036 11.1614 5.47743 11.8527 5.43328C12.1271 5.41575 12.4822 5.4381 12.918 5.50033V7.08366H12.5013C11.7369 7.08366 11.4215 7.11976 11.2329 7.2206C11.116 7.28315 11.0342 7.36498 10.9716 7.48193C10.8707 7.67048 10.8347 7.85743 10.8347 8.62183V10.0003H12.918L12.5013 11.667H10.8347V16.6154ZM10.0013 18.3337C5.39893 18.3337 1.66797 14.6027 1.66797 10.0003C1.66797 5.39795 5.39893 1.66699 10.0013 1.66699C14.6037 1.66699 18.3347 5.39795 18.3347 10.0003C18.3347 14.6027 14.6037 18.3337 10.0013 18.3337Z"
      fill="white"
    />
</svg>