<svg width="20" height="20" viewBox="0 0 20 20" fill="none" xmlns="http://www.w3.org/2000/svg">
<path d="M15.2803 15.2825H13.0591V11.8018C13.0591 10.9718 13.0422 9.90375 11.9016 9.90375C10.7435 9.90375 10.5666 10.8069 10.5666 11.7406V15.2825H8.34533V8.125H10.4791V9.10058H10.5078C10.806 8.53808 11.531 7.94437 12.6141 7.94437C14.8647 7.94437 15.281 9.42567 15.281 11.3538L15.2803 15.2825ZM5.8366 7.14562C5.1216 7.14562 4.54723 6.56687 4.54723 5.855C4.54723 5.14375 5.12223 4.56563 5.8366 4.56563C6.5491 4.56563 7.1266 5.14375 7.1266 5.855C7.1266 6.56687 6.54848 7.14562 5.8366 7.14562ZM6.95035 15.2825H4.72285V8.125H6.95035V15.2825ZM16.3916 2.5H3.60785C2.99598 2.5 2.50098 2.98375 2.50098 3.58063V16.4194C2.50098 17.0168 2.99598 17.5 3.60785 17.5H16.3897C17.001 17.5 17.501 17.0168 17.501 16.4194V3.58063C17.501 2.98375 17.001 2.5 16.3897 2.5H16.3916Z" fill="white"/>
</svg>
