<svg width="20" height="20" viewBox="0 0 20 20" fill="none" xmlns="http://www.w3.org/2000/svg">
<path d="M12.7913 4.62467C11.4731 4.62467 10.3985 5.68138 10.375 6.99678L10.3516 8.30932C10.3467 8.58542 10.1188 8.80526 9.84276 8.80034C9.82309 8.80001 9.80351 8.79851 9.78409 8.79584L8.48343 8.61842C6.77217 8.38509 5.13204 7.59743 3.55861 6.2864C3.0603 9.04442 4.03301 10.9557 6.37753 12.4296L7.83335 13.3448C8.06713 13.4918 8.13751 13.8005 7.99054 14.0343C7.95685 14.0878 7.91331 14.1345 7.86221 14.1718L6.53583 15.1409C7.32445 15.1905 8.07416 15.1559 8.69551 15.0319C12.6268 14.2473 15.2411 11.2888 15.2411 6.40887C15.2411 6.01047 14.3975 4.62467 12.7913 4.62467ZM8.70859 6.96706C8.74826 4.74617 10.5609 2.95801 12.7913 2.95801C13.9273 2.95801 14.9551 3.42199 15.6953 4.1708C16.2882 4.16634 16.7925 4.31622 17.9193 3.6327C17.6408 4.99967 17.5025 5.59298 16.9078 6.40887C16.9078 12.7768 12.9935 15.8738 9.02168 16.6663C6.29859 17.2098 2.33839 16.3175 1.2041 15.1318C1.78196 15.0874 4.13241 14.8347 5.49047 13.8406C4.34129 13.0818 -0.232516 10.3898 2.77278 3.15498C4.184 4.8022 5.61465 5.92343 7.06474 6.51869C8.02924 6.91462 8.26616 6.90672 8.70859 6.96706Z" fill="white"/>
</svg>
