<svg width="24" height="24" viewBox="0 0 24 24" fill="none" xmlns="http://www.w3.org/2000/svg">
<path d="M11.9999 2.75C12.1899 2.75 12.3799 2.82 12.5299 2.97L18.5999 9.04C18.8899 9.33 18.8899 9.81 18.5999 10.1C18.3099 10.39 17.8299 10.39 17.5399 10.1L11.9999 4.56L6.45988 10.1C6.16988 10.39 5.68988 10.39 5.39988 10.1C5.10988 9.81 5.10988 9.33 5.39988 9.04L11.4699 2.97C11.6199 2.82 11.8099 2.75 11.9999 2.75Z" fill="#121212"/>
<path d="M12 2.92C12.41 2.92 12.75 3.26 12.75 3.67L12.75 20.5C12.75 20.91 12.41 21.25 12 21.25C11.59 21.25 11.25 20.91 11.25 20.5L11.25 3.67C11.25 3.26 11.59 2.92 12 2.92Z" fill="#121212"/>
</svg>
