<svg width="126" height="32" viewBox="0 0 126 32" fill="none" xmlns="http://www.w3.org/2000/svg">
<g clip-path="url(#clip0_267_56520)">
<path d="M18.2507 27.0101L0.640001 16.837C0.352001 16.6771 8.40529e-07 16.8797 8.54979e-07 17.2103L1.17427e-06 24.5148C1.19245e-06 24.9307 0.224001 25.3039 0.576001 25.5172L15.424 34.0907C15.776 34.2933 16.224 34.2933 16.576 34.0907L20.454 31.854C20.4569 31.8523 20.4587 31.8493 20.4587 31.846C20.4587 31.8427 20.4604 31.8397 20.4633 31.838L25.254 29.0708C25.2561 29.0696 25.2587 29.0711 25.2587 29.0735C25.2587 29.0758 25.2612 29.0773 25.2633 29.0761L28.8107 27.0314C31.7227 25.3466 31.904 21.1664 29.0987 19.311C29.0347 19.2683 28.9813 19.2363 28.9173 19.1937L9.84737 8.17042C9.83186 8.16145 9.81732 8.15067 9.8024 8.14074C9.78781 8.13101 9.77342 8.12032 9.75836 8.11134C7.54158 6.79107 7.58106 3.56711 9.824 2.27062C10.6088 1.81744 11.6398 2.37625 12.0727 3.17241C12.4548 3.87531 13.0279 4.47275 13.7493 4.88319L31.36 15.0456C31.648 15.2055 32 15.0029 32 14.6723L32 7.37846C32 6.96259 31.776 6.58936 31.424 6.37609L16.576 -2.19741C16.224 -2.40002 15.776 -2.40002 15.424 -2.19741L13.7067 -1.2057L4.96 3.83816L3.09333 4.92585C0.181334 6.61069 0.0426672 10.8228 2.912 12.6036C2.96533 12.6356 3.02933 12.6783 3.08267 12.7102L22.1632 23.7228C22.1788 23.7318 22.1934 23.7426 22.2084 23.7526C22.2229 23.7623 22.2372 23.7729 22.2522 23.7819C24.4584 25.1021 24.419 28.3261 22.1867 29.612C21.395 30.0712 20.3551 29.5116 19.9153 28.709C19.5326 28.0105 18.9637 27.4191 18.2507 27.0101Z" fill="#016552"/>
</g>
<path d="M42.752 4.2793H47.136L57.472 22.3913V4.2793H60.992V26.9993H56.416L46.272 9.3033V26.9993H42.752V4.2793Z" fill="#121212"/>
<path d="M70.6602 27.3833C65.7642 27.3833 62.5642 23.9273 62.5642 18.5193C62.5642 13.1113 65.7642 9.6553 70.6602 9.6553C75.5562 9.6553 78.7562 13.1113 78.7562 18.5193C78.7562 23.9273 75.5562 27.3833 70.6602 27.3833ZM66.1482 18.5193C66.1482 22.1993 67.7802 24.4073 70.6602 24.4073C73.5402 24.4073 75.1722 22.1993 75.1722 18.5193C75.1722 14.8393 73.5402 12.6313 70.6602 12.6313C67.7802 12.6313 66.1482 14.8393 66.1482 18.5193Z" fill="#121212"/>
<path d="M78.0165 10.0393H81.5045L86.2725 23.3513L90.9125 10.0393H94.3685L87.5845 28.9833C86.8805 30.9033 85.6005 31.7993 83.4885 31.7993H80.9605V29.0153H82.9765C83.8725 29.0153 84.3525 28.6953 84.6725 27.8953L85.2165 26.4873H84.1605L78.0165 10.0393Z" fill="#121212"/>
<path d="M94.1335 15.1273C94.8055 11.7033 97.4935 9.6553 101.397 9.6553C106.037 9.6553 108.565 12.2153 108.565 16.8553V23.1593C108.565 23.9913 108.917 24.2793 109.589 24.2793H110.293V26.9993H109.205C107.669 27.0313 105.557 26.7753 105.397 24.4073C104.661 26.0073 102.773 27.3833 99.9575 27.3833C96.5655 27.3833 93.8455 25.5593 93.8455 22.5513C93.8455 19.1593 96.3735 18.1673 100.277 17.3993L105.109 16.4713C105.077 13.7513 103.861 12.4713 101.397 12.4713C99.4455 12.4713 98.1655 13.4633 97.6855 15.3513L94.1335 15.1273ZM97.4295 22.4873C97.4295 23.7033 98.4855 24.7273 100.693 24.7273C103.221 24.7273 105.173 22.9033 105.173 19.2553V19.0953L101.589 19.7353C99.2855 20.1513 97.4295 20.3433 97.4295 22.4873Z" fill="#121212"/>
<path d="M121.287 15.3833C120.935 13.5913 119.239 12.5353 117.511 12.5353C115.783 12.5353 114.407 13.3993 114.439 14.8713C114.471 16.4073 116.423 17.0153 118.151 17.3353C122.375 18.1033 125.095 19.2553 125.095 22.5833C125.095 25.9113 121.735 27.3833 118.151 27.3833C113.799 27.3833 110.695 25.2073 110.439 21.6553L113.991 21.4313C114.311 23.3193 115.783 24.5033 118.119 24.5033C119.591 24.5033 121.511 23.9913 121.511 22.4233C121.511 20.5993 119.367 20.4073 117.543 19.9913C113.959 19.2233 110.855 18.2633 110.855 14.9993C110.855 11.6713 113.543 9.6553 117.767 9.6553C121.447 9.6553 124.263 11.7993 124.839 15.1913L121.287 15.3833Z" fill="#121212"/>
<defs>
<clipPath id="clip0_267_56520">
<rect width="32" height="32" fill="white" transform="matrix(4.37114e-08 1 1 -4.37114e-08 0 0)"/>
</clipPath>
</defs>
</svg>
